<?xml version="1.0" encoding="UTF-8" standalone="no"?>
<!-- Created with Inkscape (http://www.inkscape.org/) -->

<svg
   version="1.1"
   id="svg1"
   width="1354.7788"
   height="1219.5858"
   viewBox="0 0 1354.7789 1219.5859"
   xmlns="http://www.w3.org/2000/svg"
   xmlns:svg="http://www.w3.org/2000/svg">
  <defs
     id="defs1" />
  <g
     id="g2"
     style="display:inline"
     transform="translate(-6.2446944,-12.453913)">
    <path
       style="fill:#000000;stroke-width:2.4303"
       d="m 831.43032,1227.3427 c -52.79542,-16.2304 -75.89998,-71.4553 -46.85966,-112.0049 8.20272,-11.4536 33.6206,-31.0034 40.30947,-31.0034 3.75846,0 4.5851,-30.0029 4.49944,-163.3035 L 829.27468,757.72748 664.99975,615.2427 C 528.44531,496.80142 499.47398,473.04761 493.31211,474.47471 c -4.07702,0.94422 -76.47861,1.77807 -160.89245,1.85301 l -153.47967,0.13614 -9.32319,13.26353 C 151.71515,515.19497 114.80162,530.12374 80.656932,525.70504 57.907279,522.76101 30.953945,507.32564 18.751047,490.25347 5.346065,471.49953 2.3651192,443.83508 11.520163,423.14776 c 16.826568,-38.02238 63.56097,-57.35749 111.102197,-45.96554 16.22259,3.88727 42.1742,23.81348 51.45027,39.50456 l 6.75323,11.42356 h 132.47976 c 72.86385,0 132.47971,-1.02652 132.47971,-2.28117 0,-1.25466 -37.68426,-34.78076 -83.74282,-74.50249 l -83.74284,-72.2213 -25.26263,-0.22724 c -20.10096,-0.18085 -28.93218,-1.85101 -43.22259,-8.17444 -47.31396,-20.93612 -62.59436,-68.14708 -34.93772,-107.94498 15.58842,-22.43174 37.49796,-33.64092 68.73172,-35.16393 13.28231,-0.64769 29.38607,0.48277 36.74866,2.57968 17.08533,4.86603 42.71089,25.3407 50.76841,40.56365 9.04272,17.08427 8.58214,45.93349 -1.04152,65.2389 l -7.56791,15.18149 78.20347,67.33178 c 43.01189,37.03245 79.38072,67.36449 80.81958,67.4045 3.23238,0.0899 3.40881,-94.46484 0.31384,-168.20056 l -2.30231,-54.85076 -12.56815,-5.5332 c -36.12377,-15.90372 -56.1837,-53.62043 -45.94309,-86.382385 14.85874,-47.536493 73.2872,-71.6012139 124.1843,-51.147395 63.1019,25.358544 68.51773,100.64666 9.65184,134.1756 l -18.10062,10.30978 2.00395,137.19008 2.00391,137.19007 162.66379,141.77107 162.66379,141.77106 159.25101,0.46094 159.2509,0.46096 10.5942,-16.19961 c 11.305,-17.28622 23.3229,-27.02537 41.3889,-33.54046 58.9701,-21.26609 123.3901,13.84102 124.4125,67.80129 0.4537,23.93112 -8.9352,42.38362 -29.8027,58.57451 -20.566,15.95687 -37.7686,20.77677 -68.1878,19.10523 -17.1492,-0.94234 -24.9311,-3.10541 -36.5714,-10.1655 -12.5055,-7.58476 -33.9215,-28.04502 -38.1957,-36.49116 -0.6754,-1.3344 -59.7065,-1.74889 -131.1803,-0.92107 l -129.9525,1.50511 97.6164,84.28562 c 92.069,79.49569 98.4821,84.39598 112.8501,86.22781 20.7871,2.65033 33.3031,8.75927 50.0299,24.41931 57.9527,54.25617 -0.6435,142.07457 -84.05,125.96667 -63.941,-12.3487 -92.0562,-77.3917 -52.6905,-121.89701 l 11.5597,-13.06897 -88.95874,-76.41058 -88.95882,-76.41066 1.97501,136.91844 c 1.19104,82.56628 3.29563,137.29838 5.30173,137.87548 13.84823,3.9836 37.15143,21.6191 45.76514,34.6346 21.72283,32.8233 16.11066,67.8429 -15.0645,94.0017 -25.96674,21.7884 -58.11455,28.1507 -91.06257,18.0218 z m 52.04417,-50.4447 c 19.56747,-14.6722 14.01369,-40.3111 -10.65909,-49.2075 -16.42939,-5.9239 -33.96358,0.2761 -42.0218,14.8589 -15.55928,28.1571 25.35816,54.836 52.68089,34.3486 z m 260.68341,-137.4086 c 15.2275,-11.7414 15.99,-29.3835 1.7991,-41.62983 -27.2378,-23.50566 -72.1675,5.87353 -53.4799,34.97003 10.8023,16.819 34.5384,19.8777 51.6808,6.6598 z m 150.2596,-274.27311 c 24.4775,-16.61566 8.7901,-51.13671 -23.2381,-51.13671 -11.5804,0 -29.0537,13.15665 -31.7992,23.94325 -2.4997,9.82123 5.0296,25.09353 14.7894,29.9992 10.2448,5.14934 30.6214,3.72883 40.2479,-2.80574 z M 110.41467,474.99432 c 25.76168,-11.49642 22.7385,-41.69007 -5.18223,-51.75755 -10.18109,-3.67103 -13.402134,-3.64299 -24.086897,0.20973 -16.275113,5.86838 -25.045016,22.29568 -18.823062,35.25844 8.768036,18.2674 28.604247,24.98617 48.092189,16.28948 z m 164.2757,-253.07348 c 22.0888,-19.0504 -0.92251,-53.91484 -31.73085,-48.07541 -12.66728,2.40095 -27.39373,17.62802 -27.39373,28.32493 0,9.52252 11.30371,23.44272 22.28288,27.44072 10.9972,4.00455 27.20423,0.62155 36.8417,-7.69024 z m 254.5435,-111.65422 c 8.67115,-6.29647 10.73217,-10.09204 10.73217,-19.7642 0,-15.624906 -5.02297,-23.218993 -18.59459,-28.112542 -14.99751,-5.407703 -28.58227,-2.587934 -38.99852,8.094814 -12.2769,12.590984 -11.69973,27.372888 1.51401,38.775988 13.36434,11.53307 30.33132,11.90947 45.34693,1.00594 z M 233.50809,1090.0932 c -62.42979,-16.4587 -83.58415,-81.7206 -40.7004,-125.56243 10.49565,-10.73007 39.0722,-24.68613 50.54755,-24.68613 4.5834,0 7.09231,-1.97631 7.09231,-5.58683 0,-3.0864 12.8795,-16.13455 28.77743,-29.15423 51.82733,-42.4442 159.584,-133.84287 159.584,-135.35838 0,-0.81512 -27.93599,-1.482 -62.07997,-1.482 h -62.07999 l -12.04374,15.74852 c -30.48314,39.86009 -93.67452,47.61291 -134.70206,16.52631 -23.94621,-18.14406 -34.63114,-51.0632 -25.6046,-78.88512 5.36659,-16.54107 26.96481,-38.52641 46.65864,-47.49495 20.01381,-9.11429 57.50097,-9.17031 77.37163,-0.11555 17.36301,7.91198 34.28393,22.50854 41.67549,35.95067 l 5.55762,10.10698 40.82239,0.44588 c 22.45231,0.24525 65.15241,0.12797 94.88911,-0.26035 l 54.0667,-0.70625 52.63726,-45.12852 52.63724,-45.12849 19.82612,17.54453 19.82609,17.54449 -50.84716,42.92404 -50.84715,42.92402 2.45429,67.56127 2.45431,67.56125 9.74459,1.84698 c 16.56136,3.13905 40.07264,21.07518 49.87272,38.04659 10.58504,18.33077 12.39175,47.08736 4.04183,64.33307 -18.03282,37.24483 -63.83756,56.34453 -108.34643,45.17853 -35.67032,-8.9488 -64.49676,-41.96483 -64.49676,-73.87095 0,-18.63966 10.82615,-39.73136 28.00168,-54.55338 9.3568,-8.07466 18.6568,-14.68123 20.66666,-14.68123 4.07413,0 5.12332,-59.14523 1.4585,-82.21913 l -2.19579,-13.82479 -91.62782,76.98142 -91.62781,76.98136 12.40422,9.39879 c 24.64748,18.67546 34.72464,51.70921 24.6375,80.76381 -5.22974,15.0634 -27.52546,36.9961 -45.77665,45.0312 -16.34891,7.1978 -47.77032,9.7701 -64.72955,5.2991 z m 48.60136,-53.6904 c 18.56361,-16.02 12.16655,-41.37623 -12.18863,-48.31283 -14.19097,-4.04171 -34.00304,1.6401 -40.12157,11.506 -12.28543,19.81013 4.32622,45.60583 29.36874,45.60583 9.43594,0 15.39269,-2.2846 22.94146,-8.799 z m 275.21821,-55.9933 c 13.2965,-11.46765 12.12013,-29.4678 -2.67119,-40.87289 -6.22179,-4.7974 -15.1379,-8.72257 -19.8136,-8.72257 -29.51632,0 -46.73491,27.34981 -29.27678,46.50295 14.18564,15.56318 35.80455,16.85458 51.76157,3.09251 z M 250.71588,762.47433 c 7.54877,-6.51438 10.19619,-11.65487 10.19619,-19.79786 0,-8.14297 -2.64742,-13.28348 -10.19619,-19.79786 -7.54878,-6.51439 -13.50551,-8.79903 -22.94146,-8.79903 -17.44797,0 -33.13767,13.32079 -33.13767,28.13438 0,26.41181 34.50536,38.87795 56.07913,20.26037 z m 490.65493,-213.17003 -20.01669,-17.27389 51.9285,-45.18703 51.9285,-45.18703 -1.80159,-55.97702 -1.80161,-55.97702 -11.27636,-3.51884 c -15.11075,-4.7154 -36.04641,-22.70612 -43.99234,-37.80409 -7.4532,-14.1618 -8.54357,-39.15202 -2.47146,-56.64185 5.52671,-15.91884 30.65803,-39.54825 48.68055,-45.77133 36.23078,-12.51023 83.76344,-1.53509 106.48818,24.58784 31.07701,35.72413 19.20946,88.46972 -25.12742,111.6792 l -15.36958,8.04567 -0.11016,32.61049 c -0.0606,17.93579 1.24886,32.159 2.90999,31.60714 1.66111,-0.55187 39.91423,-31.90487 85.00689,-69.67333 l 81.98669,-68.66991 -10.4472,-16.64555 c -23.8236,-37.95845 -7.8864,-84.07892 36.2237,-104.82656 39.1568,-18.41782 88.505,-8.21283 113.4838,23.46798 21.9732,27.86839 21.9732,60.34008 0,88.57794 -14.7047,18.89753 -42.9711,31.73334 -69.8816,31.73334 h -18.943 l -84.9087,73.31991 -84.9089,73.31986 h 68.2187 68.2187 l 5.4534,-9.86903 c 31.8037,-57.55411 126.2318,-59.71203 160.8935,-3.67684 5.6713,9.16821 7.4674,17.42688 7.5291,34.61731 0.068,19.2432 -1.3255,24.64075 -9.4433,36.55771 -10.9661,16.09791 -25.9892,27.87691 -44.0918,34.57065 -16.4467,6.08141 -50.9754,5.98966 -67.6759,-0.17994 -17.0975,-6.31609 -38.9417,-23.46133 -44.4122,-34.85861 l -4.319,-8.99808 H 969.50016 869.678 l -54.14518,46.65734 -54.14514,46.65738 z m 422.22769,-76.26606 c 13.3944,-4.02952 21.6798,-14.57581 21.6798,-27.59598 0,-12.44133 -7.068,-21.40767 -20.7225,-26.28857 -21.3196,-7.62079 -45.553,5.98406 -45.553,25.57392 0,14.49397 5.2377,22.14648 18.5878,27.15791 13.6313,5.11702 12.9329,5.08607 26.0079,1.15272 z M 860.46356,283.29444 c 27.16752,-8.17291 28.04515,-41.5497 1.37967,-52.46942 -20.19561,-8.27024 -39.05073,-0.80702 -46.38012,18.35812 -4.72005,12.34217 2.22193,25.96515 16.68139,32.73572 11.68192,5.46996 14.28808,5.59658 28.31906,1.37558 z m 280.71914,-63.29365 c 8.3419,-7.90699 9.6442,-11.22828 7.9695,-20.32633 -2.542,-13.8108 -19.2438,-27.43112 -33.6374,-27.43112 -6.4957,0 -14.5703,3.25067 -21.6669,8.72255 -9.2075,7.09968 -11.3123,10.97539 -11.3123,20.83098 0,28.43953 36.0449,39.62775 58.6471,18.20392 z"
       id="path2" />
  </g>
</svg>
