<svg version="1.1" id="Layer_1" xmlns="http://www.w3.org/2000/svg" xmlns:xlink="http://www.w3.org/1999/xlink" x="0px" y="0px"
	 width="100%" viewBox="0 0 2000 2000" enable-background="new 0 0 2000 2000" xml:space="preserve">
<path fill="#004AAD" opacity="1.000000" stroke="none" 
	d="
M929.000000,2001.000000 
	C619.333313,2001.000000 310.166656,2001.000000 1.000000,2001.000000 
	C1.000000,1334.333374 1.000000,667.666687 1.000000,1.000000 
	C667.666687,1.000000 1334.333374,1.000000 2001.000000,1.000000 
	C2001.000000,667.666687 2001.000000,1334.333374 2001.000000,2001.000000 
	C1643.833374,2001.000000 1286.666626,2001.000000 929.000000,2001.000000 
M1612.355713,1243.849243 
	C1659.428955,1185.109985 1687.480957,1117.993652 1699.821411,1044.093506 
	C1707.194214,999.941528 1707.629272,955.604736 1702.213501,911.156799 
	C1695.441406,855.579041 1679.507935,802.872253 1652.839478,753.610413 
	C1617.756226,688.804504 1568.729004,637.334595 1504.321045,601.088501 
	C1441.477417,565.722595 1373.383057,548.976868 1301.726196,548.044739 
	C1214.421631,546.908936 1127.093262,547.593201 1039.775269,547.503967 
	C1038.316162,547.502502 1036.856812,547.675598 1035.442627,547.764343 
	C1035.442627,828.337280 1035.442627,1108.533813 1035.442627,1389.000488 
	C1037.756592,1389.000488 1039.738770,1389.000366 1041.721069,1389.000366 
	C1118.375122,1389.000366 1195.029785,1388.834229 1271.683105,1389.077271 
	C1305.233765,1389.183716 1338.610840,1387.698853 1371.719604,1381.979736 
	C1410.780151,1375.232666 1448.359985,1363.729736 1483.978882,1346.271606 
	C1534.068481,1321.721069 1576.664185,1287.648926 1612.355713,1243.849243 
M878.197083,602.800537 
	C879.497253,591.924683 880.797485,581.048828 882.072754,570.381409 
	C881.255005,569.830017 880.873413,569.476135 880.422974,569.282715 
	C837.626526,550.903137 792.815491,541.085693 746.453918,538.114258 
	C714.948730,536.094971 683.496338,537.267395 652.170593,541.066833 
	C617.540894,545.266968 583.729492,553.003540 550.953308,565.120300 
	C503.890900,582.518433 461.460205,607.679626 424.336670,641.421631 
	C378.093018,683.453064 344.020172,734.055359 321.002960,792.029724 
	C293.091064,862.332642 283.492950,935.257629 290.754089,1010.499573 
	C296.311707,1068.088745 311.559509,1122.878906 338.073944,1174.363403 
	C373.110046,1242.394653 423.111725,1296.562744 489.562683,1334.822388 
	C560.352722,1375.580322 637.545776,1391.574341 718.502136,1391.305298 
	C761.488708,1391.162354 803.791504,1384.827271 845.313110,1373.828613 
	C864.067383,1368.860840 882.501892,1362.686035 901.190674,1357.025757 
	C893.599854,1298.102295 886.167908,1240.412354 878.689636,1182.362549 
	C877.440674,1182.779175 876.636597,1182.949585 875.920959,1183.300415 
	C838.025696,1201.867920 797.973877,1212.826050 756.086914,1217.357178 
	C718.532898,1221.419556 681.254517,1220.539551 644.527527,1210.851807 
	C582.724121,1194.549316 535.613708,1158.709351 503.253387,1103.653809 
	C482.601562,1068.518311 471.261169,1030.343994 467.573303,989.854614 
	C462.624786,935.524353 471.529968,883.670410 496.281036,834.885254 
	C520.047913,788.040039 555.457947,752.792175 603.053894,730.259277 
	C634.769897,715.244324 668.411011,707.963440 703.430237,706.790405 
	C755.920166,705.032349 806.203247,713.606689 853.024902,738.550293 
	C855.766235,740.010742 858.665771,741.174194 861.865479,742.648071 
	C862.287537,739.454163 862.668091,736.829773 862.976624,734.196899 
	C864.836792,718.321350 866.688782,702.444763 868.527893,686.566711 
	C871.727295,658.945312 874.915344,631.322571 878.197083,602.800537 
z"/>
<path fill="#FFFFFF" opacity="1.000000" stroke="none" 
	d="
M1612.134766,1244.127441 
	C1576.664185,1287.648926 1534.068481,1321.721069 1483.978882,1346.271606 
	C1448.359985,1363.729736 1410.780151,1375.232666 1371.719604,1381.979736 
	C1338.610840,1387.698853 1305.233765,1389.183716 1271.683105,1389.077271 
	C1195.029785,1388.834229 1118.375122,1389.000366 1041.721069,1389.000366 
	C1039.738770,1389.000366 1037.756592,1389.000488 1035.442627,1389.000488 
	C1035.442627,1108.533813 1035.442627,828.337280 1035.442627,547.764343 
	C1036.856812,547.675598 1038.316162,547.502502 1039.775269,547.503967 
	C1127.093262,547.593201 1214.421631,546.908936 1301.726196,548.044739 
	C1373.383057,548.976868 1441.477417,565.722595 1504.321045,601.088501 
	C1568.729004,637.334595 1617.756226,688.804504 1652.839478,753.610413 
	C1679.507935,802.872253 1695.441406,855.579041 1702.213501,911.156799 
	C1707.629272,955.604736 1707.194214,999.941528 1699.821411,1044.093506 
	C1687.480957,1117.993652 1659.428955,1185.109985 1612.134766,1244.127441 
M1530.915894,959.633545 
	C1529.856445,933.401001 1525.937866,907.645142 1517.947021,882.583862 
	C1501.402710,830.697205 1472.265625,787.738770 1427.127319,756.598816 
	C1388.497803,729.949219 1344.937378,717.717468 1298.457886,716.164307 
	C1268.329956,715.157654 1238.144165,715.881592 1207.984253,715.847046 
	C1206.534180,715.845398 1205.083984,716.008423 1203.535400,716.100586 
	C1203.535400,884.420959 1203.535400,1052.436768 1203.535400,1220.833984 
	C1205.681763,1220.833984 1207.489502,1220.833984 1209.297119,1220.833984 
	C1232.125488,1220.833984 1254.966553,1221.299927 1277.778320,1220.683350 
	C1295.391479,1220.207397 1313.148315,1219.565063 1330.529053,1216.934326 
	C1399.762573,1206.455078 1453.886230,1171.870728 1491.204590,1112.380859 
	C1520.245850,1066.085571 1532.230835,1015.003113 1530.915894,959.633545 
z"/>
<path fill="#FFFFFF" opacity="1.000000" stroke="none" 
	d="
M878.152588,603.250488 
	C874.915344,631.322571 871.727295,658.945312 868.527893,686.566711 
	C866.688782,702.444763 864.836792,718.321350 862.976624,734.196899 
	C862.668091,736.829773 862.287537,739.454163 861.865479,742.648071 
	C858.665771,741.174194 855.766235,740.010742 853.024902,738.550293 
	C806.203247,713.606689 755.920166,705.032349 703.430237,706.790405 
	C668.411011,707.963440 634.769897,715.244324 603.053894,730.259277 
	C555.457947,752.792175 520.047913,788.040039 496.281036,834.885254 
	C471.529968,883.670410 462.624786,935.524353 467.573303,989.854614 
	C471.261169,1030.343994 482.601562,1068.518311 503.253387,1103.653809 
	C535.613708,1158.709351 582.724121,1194.549316 644.527527,1210.851807 
	C681.254517,1220.539551 718.532898,1221.419556 756.086914,1217.357178 
	C797.973877,1212.826050 838.025696,1201.867920 875.920959,1183.300415 
	C876.636597,1182.949585 877.440674,1182.779175 878.689636,1182.362549 
	C886.167908,1240.412354 893.599854,1298.102295 901.190674,1357.025757 
	C882.501892,1362.686035 864.067383,1368.860840 845.313110,1373.828613 
	C803.791504,1384.827271 761.488708,1391.162354 718.502136,1391.305298 
	C637.545776,1391.574341 560.352722,1375.580322 489.562683,1334.822388 
	C423.111725,1296.562744 373.110046,1242.394653 338.073944,1174.363403 
	C311.559509,1122.878906 296.311707,1068.088745 290.754089,1010.499573 
	C283.492950,935.257629 293.091064,862.332642 321.002960,792.029724 
	C344.020172,734.055359 378.093018,683.453064 424.336670,641.421631 
	C461.460205,607.679626 503.890900,582.518433 550.953308,565.120300 
	C583.729492,553.003540 617.540894,545.266968 652.170593,541.066833 
	C683.496338,537.267395 714.948730,536.094971 746.453918,538.114258 
	C792.815491,541.085693 837.626526,550.903137 880.422974,569.282715 
	C880.873413,569.476135 881.255005,569.830017 882.072754,570.381409 
	C880.797485,581.048828 879.497253,591.924683 878.152588,603.250488 
z"/>
<path fill="#004AAD" opacity="1.000000" stroke="none" 
	d="
M1530.928955,960.119019 
	C1532.230835,1015.003113 1520.245850,1066.085571 1491.204590,1112.380859 
	C1453.886230,1171.870728 1399.762573,1206.455078 1330.529053,1216.934326 
	C1313.148315,1219.565063 1295.391479,1220.207397 1277.778320,1220.683350 
	C1254.966553,1221.299927 1232.125488,1220.833984 1209.297119,1220.833984 
	C1207.489502,1220.833984 1205.681763,1220.833984 1203.535400,1220.833984 
	C1203.535400,1052.436768 1203.535400,884.420959 1203.535400,716.100586 
	C1205.083984,716.008423 1206.534180,715.845398 1207.984253,715.847046 
	C1238.144165,715.881592 1268.329956,715.157654 1298.457886,716.164307 
	C1344.937378,717.717468 1388.497803,729.949219 1427.127319,756.598816 
	C1472.265625,787.738770 1501.402710,830.697205 1517.947021,882.583862 
	C1525.937866,907.645142 1529.856445,933.401001 1530.928955,960.119019 
z"/>
</svg>